PathFileType	4	(X/Y/Z)	/Users/itak/Documents/Research/Walk-IL/dataset/trc/00162_00008.trc
DataRate	CameraRate	NumFrames	NumMarkers	Units	OrigDataRate	OrigDataStartFrame	OrigNumFrames
100.000000	100.000000	4	53	mm	100.000000	154	617
Frame#	Time	RPSI			LPSI			L3			STRN			T10			C7			CLAV			RBAK			LBAK			LSHO			LUPA			LAEL			LAOL			LWTS			LWPS			LFRA			LIFD			LHPS			LHTS			RSHO			RUPA			RAEL			RAOL			RWTS			RWPS			RFRA			RIFD			RHTS			RHPS			RBHD			LFHD			RFHD			LBHD			LHIP			RHIP			RASI			LASI			LKNE			LTHI			LANK			LTIP			LTOE			LMT1			LMT5			LHEE			RKNE			RTHI			RANK			RTIP			RTOE			RMT1			RMT5			RHEE			
		X1	Y1	Z1	X2	Y2	Z2	X3	Y3	Z3	X4	Y4	Z4	X5	Y5	Z5	X6	Y6	Z6	X7	Y7	Z7	X8	Y8	Z8	X9	Y9	Z9	X10	Y10	Z10	X11	Y11	Z11	X12	Y12	Z12	X13	Y13	Z13	X14	Y14	Z14	X15	Y15	Z15	X16	Y16	Z16	X17	Y17	Z17	X18	Y18	Z18	X19	Y19	Z19	X20	Y20	Z20	X21	Y21	Z21	X22	Y22	Z22	X23	Y23	Z23	X24	Y24	Z24	X25	Y25	Z25	X26	Y26	Z26	X27	Y27	Z27	X28	Y28	Z28	X29	Y29	Z29	X30	Y30	Z30	X31	Y31	Z31	X32	Y32	Z32	X33	Y33	Z33	X34	Y34	Z34	X35	Y35	Z35	X36	Y36	Z36	X37	Y37	Z37	X38	Y38	Z38	X39	Y39	Z39	X40	Y40	Z40	X41	Y41	Z41	X42	Y42	Z42	X43	Y43	Z43	X44	Y44	Z44	X45	Y45	Z45	X46	Y46	Z46	X47	Y47	Z47	X48	Y48	Z48	X49	Y49	Z49	X50	Y50	Z50	X51	Y51	Z51	X52	Y52	Z52	X53	Y53	Z53	

155	1.54	-2145.28125	1058.881225585938	-38.41923904418945	-2126.9833984375	1055.295654296875	-161.2527770996094	-2133.904541015625	1094.368774414062	-97.87222290039062	-1873.9111328125	1298.121337890625	-76.52896118164062	-2165.2900390625	1251.166870117188	-113.5950469970703	-2096.8994140625	1520.846435546875	-125.2440338134766	-1898.999755859375	1412.273315429688	-91.26446533203125	-2178.158935546875	1348.314208984375	-19.21397972106934	-2088.10302734375	1490.707153320312	-225.0946197509766	-2001.19775390625	1475.723876953125	-292.114013671875	-2019.26220703125	1342.316772460938	-367.0244445800781	-1993.912231445312	1123.06689453125	-377.0274047851562	-2058.923828125	1109.541870117188	-319.0353698730469	-1893.868041992188	893.205078125	-309.8969116210938	-1960.878662109375	871.1665649414062	-372.085693359375	-1975.73779296875	1012.859191894531	-383.673583984375	-1903.813110351562	718.98681640625	-271.8682556152344	-1942.997192382812	800.977783203125	-360.9270935058594	-1879.927856445312	812.3103637695312	-325.3682861328125	-2056.397705078125	1502.492431640625	64.69088745117188	-2084.571044921875	1437.276733398438	133.1630706787109	-2103.71484375	1147.41748046875	188.674072265625	-2103.589111328125	1140.2353515625	90.10302734375	-1955.10986328125	923.4194946289062	170.9402008056641	-2032.142944335938	904.7950439453125	215.4490966796875	-2076.998046875	1074.735717773438	206.8198852539062	-1934.896728515625	736.0763549804688	150.0240020751953	-1926.18212890625	830.176025390625	181.7734222412109	-2000.302001953125	822.24853515625	213.8871917724609	-2045.99951171875	1684.912109375	-48.36165618896484	-1858.77587890625	1724.788818359375	-152.5043029785156	-1877.454345703125	1727.295532226562	-24.61823463439941	-2031.914794921875	1689.894165039062	-185.6346435546875	-2007.694580078125	988.5712280273438	-263.1089477539062	-2016.08349609375	1016.189025878906	99.26612091064453	-1919.281982421875	1046.048217773438	61.30231475830078	-1890.316772460938	1027.459228515625	-195.9204864501953	-2007.2822265625	496.3103942871094	-227.1898345947266	-1991.483642578125	637.412109375	-253.8851623535156	-2099.9384765625	41.2964973449707	-236.6350708007812	-2051.709228515625	275.3352661132812	-246.2831115722656	-1880.623046875	39.7658576965332	-217.5988922119141	-1928.308349609375	40.5516357421875	-167.8016967773438	-1992.588500976562	32.90499496459961	-278.6180725097656	-2147.430908203125	40.01195526123047	-163.7376403808594	-1967.895629882812	517.0419921875	96.17916107177734	-1943.064453125	789.0568237304688	129.7696685791016	-2090.427001953125	37.72054672241211	89.48477172851562	-1962.864624023438	392.7590026855469	83.59128570556641	-1866.453125	43.33622741699219	86.52971649169922	-1914.775024414062	41.09694290161133	32.29758834838867	-1981.754760742188	34.15885162353516	138.3401641845703	-2130.449951171875	38.88443756103516	14.2854175567627	
156	1.55	-2145.1240234375	1058.868774414062	-38.02193069458008	-2126.63525390625	1055.370849609375	-160.8528137207031	-2133.696044921875	1094.404541015625	-97.45914459228516	-1873.59765625	1298.006103515625	-75.74402618408203	-2164.98681640625	1251.16455078125	-113.1653366088867	-2096.572998046875	1520.825561523438	-124.8304443359375	-1898.643676757812	1412.153564453125	-90.50096130371094	-2177.939453125	1348.2333984375	-18.88291168212891	-2087.54443359375	1490.586547851562	-224.619384765625	-2000.589721679688	1475.589111328125	-291.5010375976562	-2018.534057617188	1342.206665039062	-366.461669921875	-1993.060180664062	1123.011840820312	-376.5449829101562	-2058.258544921875	1109.460815429688	-318.7695922851562	-1893.50146484375	892.9412231445312	-309.5320739746094	-1960.395751953125	871.1039428710938	-371.9387512207031	-1975.018310546875	1012.816711425781	-383.3070983886719	-1903.778686523438	718.6701049804688	-271.8101196289062	-1942.643676757812	800.857421875	-360.8739624023438	-1879.66552734375	812.0391845703125	-325.0060119628906	-2056.34423828125	1502.46728515625	65.14550018310547	-2084.61181640625	1437.251220703125	133.5884094238281	-2104.128173828125	1147.332397460938	188.8738861083984	-2103.63720703125	1140.25439453125	90.24417114257812	-1955.540771484375	923.3148193359375	171.5082092285156	-2032.7451171875	904.6890258789062	215.6902770996094	-2077.501953125	1074.619873046875	207.0580291748047	-1935.292846679688	735.9764404296875	150.5363311767578	-1926.753295898438	830.0744018554688	182.3555145263672	-2001.00146484375	822.113037109375	214.207763671875	-2045.564086914062	1685.0009765625	-47.80920791625977	-1858.425415039062	1724.526489257812	-152.1920013427734	-1876.882568359375	1727.05517578125	-24.27959632873535	-2031.614990234375	1689.939453125	-185.056884765625	-2007.32666015625	988.6350708007812	-262.6338195800781	-2016.211059570312	1015.926513671875	100.4405212402344	-1919.275512695312	1045.679077148438	61.84297180175781	-1889.931884765625	1027.397094726562	-195.32080078125	-2007.534912109375	496.3508911132812	-227.0691223144531	-1991.466918945312	637.3974609375	-253.5782318115234	-2099.942138671875	41.21264266967773	-236.7165374755859	-2051.931884765625	275.4116516113281	-246.2728118896484	-1880.681640625	39.79608535766602	-217.5749053955078	-1928.350463867188	40.5850944519043	-167.796630859375	-1992.628295898438	32.83174896240234	-278.6951904296875	-2147.4892578125	40.02154922485352	-163.8576354980469	-1967.660888671875	516.7391967773438	96.18931579589844	-1942.98486328125	788.663818359375	130.0726623535156	-2090.574462890625	37.58899688720703	89.45152282714844	-1962.672729492188	392.3714904785156	83.46159362792969	-1866.534912109375	43.4791259765625	86.56232452392578	-1914.857543945312	41.06303024291992	32.30726623535156	-1981.874755859375	34.24267196655273	138.2431793212891	-2130.55859375	38.4428596496582	14.18553924560547	
157	1.56	-2144.9453125	1058.844970703125	-37.61001205444336	-2126.25244140625	1055.435791015625	-160.4341735839844	-2133.42919921875	1094.44140625	-97.01110076904297	-1873.280151367188	1297.869140625	-74.86370849609375	-2164.640869140625	1251.154541015625	-112.6753616333008	-2096.222900390625	1520.816650390625	-124.3648300170898	-1898.261474609375	1412.021118164062	-89.65580749511719	-2177.69140625	1348.158203125	-18.47786140441895	-2086.94091796875	1490.458618164062	-224.0792388916016	-1999.927368164062	1475.432373046875	-290.8101501464844	-2017.772583007812	1342.072998046875	-365.8191833496094	-1992.198364257812	1122.927612304688	-375.9886474609375	-2057.563232421875	1109.348510742188	-318.4088134765625	-1893.063598632812	892.6466674804688	-309.1149597167969	-1959.899536132812	871.0166015625	-371.7211303710938	-1974.26953125	1012.739685058594	-382.8628845214844	-1903.677734375	718.3458862304688	-271.7211303710938	-1942.252075195312	800.7158203125	-360.7511291503906	-1879.372680664062	811.7421264648438	-324.5664978027344	-2056.260009765625	1502.434204101562	65.67851257324219	-2084.625	1437.211669921875	134.1026306152344	-2104.488525390625	1147.248657226562	189.1707916259766	-2103.658935546875	1140.283203125	90.47434234619141	-1955.931762695312	923.1929931640625	172.1465759277344	-2033.314575195312	904.5782470703125	216.041259765625	-2077.94970703125	1074.49560546875	207.3880615234375	-1935.670288085938	735.853271484375	151.0804290771484	-1927.284790039062	829.953125	182.9863586425781	-2001.681762695312	821.957763671875	214.6019134521484	-2045.064697265625	1685.071411132812	-47.15584564208984	-1858.035888671875	1724.2412109375	-151.8206176757812	-1876.249389648438	1726.814208984375	-23.89564514160156	-2031.290893554688	1689.9677734375	-184.3978271484375	-2006.901611328125	988.6990966796875	-262.1141052246094	-2016.390502929688	1015.577453613281	101.6166458129883	-1919.217651367188	1045.314697265625	62.45261764526367	-1889.528930664062	1027.315063476562	-194.6533355712891	-2007.7958984375	496.3932800292969	-226.9016265869141	-1991.47607421875	637.3915405273438	-253.2220764160156	-2099.942626953125	41.13957214355469	-236.7905578613281	-2052.16015625	275.4942321777344	-246.2316284179688	-1880.734741210938	39.8249626159668	-217.5554962158203	-1928.386474609375	40.61426162719727	-167.7927398681641	-1992.670043945312	32.75820541381836	-278.7721252441406	-2147.53857421875	40.03184509277344	-163.9657592773438	-1967.392333984375	516.427490234375	96.24053955078125	-1942.910766601562	788.244873046875	130.4304656982422	-2090.705322265625	37.48438262939453	89.41021728515625	-1962.452392578125	391.9943542480469	83.34974670410156	-1866.593139648438	43.54819488525391	86.56317138671875	-1914.925903320312	41.00906753540039	32.3014030456543	-1981.98388671875	34.33292388916016	138.1342468261719	-2130.6494140625	38.05948638916016	14.08627605438232	
158	1.57	-2144.739013671875	1058.8125	-37.17774200439453	-2125.849609375	1055.494750976562	-159.9918823242188	-2133.1064453125	1094.473754882812	-96.52592468261719	-1872.953979492188	1297.714721679688	-73.88880157470703	-2164.256591796875	1251.132446289062	-112.1303176879883	-2095.825439453125	1520.805541992188	-123.8285064697266	-1897.851928710938	1411.883544921875	-88.72802734375	-2177.41943359375	1348.097534179688	-17.99939155578613	-2086.289794921875	1490.330444335938	-223.4688262939453	-1999.209106445312	1475.260131835938	-290.0409240722656	-2016.972900390625	1341.924194335938	-365.0970764160156	-1991.331176757812	1122.821899414062	-375.3564758300781	-2056.843017578125	1109.213745117188	-317.9490051269531	-1892.568237304688	892.3276977539062	-308.6504821777344	-1959.3955078125	870.9103393554688	-371.4289855957031	-1973.500366210938	1012.637329101562	-382.3411865234375	-1903.5009765625	718.0166625976562	-271.5870666503906	-1941.826904296875	800.55908203125	-360.552001953125	-1879.060791015625	811.4266357421875	-324.0762023925781	-2056.140625	1502.394409179688	66.29580688476562	-2084.60986328125	1437.15771484375	134.7101745605469	-2104.796630859375	1147.171020507812	189.5683898925781	-2103.660400390625	1140.320434570312	90.80379486083984	-1956.285522460938	923.0593872070312	172.8542175292969	-2033.844482421875	904.4671020507812	216.5025482177734	-2078.340087890625	1074.373168945312	207.8137817382812	-1936.040283203125	735.7144775390625	151.6671295166016	-1927.770263671875	829.8138427734375	183.666015625	-2002.328735351562	821.78857421875	215.0794982910156	-2044.49560546875	1685.127197265625	-46.39951705932617	-1857.602661132812	1723.934936523438	-151.3907165527344	-1875.549560546875	1726.57470703125	-23.46575546264648	-2030.939697265625	1689.979370117188	-183.6532745361328	-2006.437255859375	988.7673950195312	-261.5540161132812	-2016.607177734375	1015.128784179688	102.6725692749023	-1919.113037109375	1044.97412109375	63.13611602783203	-1889.103271484375	1027.220825195312	-193.9158782958984	-2008.041870117188	496.4365234375	-226.6896057128906	-1991.503784179688	637.399658203125	-252.8257293701172	-2099.942626953125	41.07782363891602	-236.8579864501953	-2052.37255859375	275.5801391601562	-246.1597747802734	-1880.782348632812	39.85114288330078	-217.5416107177734	-1928.41552734375	40.63893890380859	-167.7907562255859	-1992.7119140625	32.68691253662109	-278.8475036621094	-2147.577392578125	40.04266357421875	-164.0613098144531	-1967.098388671875	516.1141967773438	96.33579254150391	-1942.856811523438	787.8034057617188	130.8495178222656	-2090.81298828125	37.40268325805664	89.37126922607422	-1962.208862304688	391.64501953125	83.26215362548828	-1866.623901367188	43.52800369262695	86.52806854248047	-1914.978637695312	40.93230056762695	32.27519989013672	-1982.075073242188	34.42589950561523	138.0213012695312	-2130.725341796875	37.74264907836914	14.00806140899658	
